<svg xmlns="http://www.w3.org/2000/svg" viewBox="0 0 1920 1080" width="1920" height="1080" preserveAspectRatio="xMidYMid meet" style="width: 100%; height: 100%; transform: translate3d(0px, 0px, 0px); content-visibility: visible;"><defs><clipPath id="__lottie_element_135"><rect width="1920" height="1080" x="0" y="0"></rect></clipPath><clipPath id="__lottie_element_143"><path d="M0,0 L842,0 L842,850 L0,850z"></path></clipPath><clipPath id="__lottie_element_147"><path d="M0,0 L899,0 L899,899 L0,899z"></path></clipPath><clipPath id="__lottie_element_151"><path d="M0,0 L670,0 L670,680 L0,680z"></path></clipPath><clipPath id="__lottie_element_158"><path d="M0,0 L899,0 L899,899 L0,899z"></path></clipPath><mask id="__lottie_element_164" mask-type="alpha"><g transform="matrix(1,0,0,1,-262.208984375,-539.3309936523438)" opacity="1" style="display: block;"><g opacity="1" transform="matrix(1,0,0,1,0,0)"><g opacity="1" transform="matrix(1,0,0,1,785.1820068359375,1463.5469970703125)"><g opacity="1" transform="matrix(1,0,0,1,-486,-972)"><path stroke-linecap="butt" stroke-linejoin="miter" fill-opacity="0" stroke-miterlimit="10" stroke="rgb(37,58,171)" stroke-opacity="1" stroke-width="2" d=" M-218.0800018310547,218.0800018310547 C30.06800079345703,-30.06800079345703 419.3630065917969,-419.3630065917969 419.3630065917969,-419.3630065917969"></path></g><g opacity="1" transform="matrix(1,0,0,1,-480,-960)"><path stroke-linecap="butt" stroke-linejoin="miter" fill-opacity="0" stroke-miterlimit="10" stroke="rgb(37,58,171)" stroke-opacity="1" stroke-width="2" d=" M-218.0800018310547,218.0800018310547 C30.06800079345703,-30.06800079345703 419.3630065917969,-419.3630065917969 419.3630065917969,-419.3630065917969"></path></g><g opacity="1" transform="matrix(1,0,0,1,-474,-948)"><path stroke-linecap="butt" stroke-linejoin="miter" fill-opacity="0" stroke-miterlimit="10" stroke="rgb(37,58,171)" stroke-opacity="1" stroke-width="2" d=" M-218.0800018310547,218.0800018310547 C30.06800079345703,-30.06800079345703 419.3630065917969,-419.3630065917969 419.3630065917969,-419.3630065917969"></path></g><g opacity="1" transform="matrix(1,0,0,1,-468,-936)"><path stroke-linecap="butt" stroke-linejoin="miter" fill-opacity="0" stroke-miterlimit="10" stroke="rgb(37,58,171)" stroke-opacity="1" stroke-width="2" d=" M-218.0800018310547,218.0800018310547 C30.06800079345703,-30.06800079345703 419.3630065917969,-419.3630065917969 419.3630065917969,-419.3630065917969"></path></g><g opacity="1" transform="matrix(1,0,0,1,-462,-924)"><path stroke-linecap="butt" stroke-linejoin="miter" fill-opacity="0" stroke-miterlimit="10" stroke="rgb(37,58,171)" stroke-opacity="1" stroke-width="2" d=" M-218.0800018310547,218.0800018310547 C30.06800079345703,-30.06800079345703 419.3630065917969,-419.3630065917969 419.3630065917969,-419.3630065917969"></path></g><g opacity="1" transform="matrix(1,0,0,1,-456,-912)"><path stroke-linecap="butt" stroke-linejoin="miter" fill-opacity="0" stroke-miterlimit="10" stroke="rgb(37,58,171)" stroke-opacity="1" stroke-width="2" d=" M-218.0800018310547,218.0800018310547 C30.06800079345703,-30.06800079345703 419.3630065917969,-419.3630065917969 419.3630065917969,-419.3630065917969"></path></g><g opacity="1" transform="matrix(1,0,0,1,-450,-900)"><path stroke-linecap="butt" stroke-linejoin="miter" fill-opacity="0" stroke-miterlimit="10" stroke="rgb(37,58,171)" stroke-opacity="1" stroke-width="2" d=" M-218.0800018310547,218.0800018310547 C30.06800079345703,-30.06800079345703 419.3630065917969,-419.3630065917969 419.3630065917969,-419.3630065917969"></path></g><g opacity="1" transform="matrix(1,0,0,1,-444,-888)"><path stroke-linecap="butt" stroke-linejoin="miter" fill-opacity="0" stroke-miterlimit="10" stroke="rgb(37,58,171)" stroke-opacity="1" stroke-width="2" d=" M-218.0800018310547,218.0800018310547 C30.06800079345703,-30.06800079345703 419.3630065917969,-419.3630065917969 419.3630065917969,-419.3630065917969"></path></g><g opacity="1" transform="matrix(1,0,0,1,-438,-876)"><path stroke-linecap="butt" stroke-linejoin="miter" fill-opacity="0" stroke-miterlimit="10" stroke="rgb(37,58,171)" stroke-opacity="1" stroke-width="2" d=" M-218.0800018310547,218.0800018310547 C30.06800079345703,-30.06800079345703 419.3630065917969,-419.3630065917969 419.3630065917969,-419.3630065917969"></path></g><g opacity="1" transform="matrix(1,0,0,1,-432,-864)"><path stroke-linecap="butt" stroke-linejoin="miter" fill-opacity="0" stroke-miterlimit="10" stroke="rgb(37,58,171)" stroke-opacity="1" stroke-width="2" d=" M-218.0800018310547,218.0800018310547 C30.06800079345703,-30.06800079345703 419.3630065917969,-419.3630065917969 419.3630065917969,-419.3630065917969"></path></g><g opacity="1" transform="matrix(1,0,0,1,-426,-852)"><path stroke-linecap="butt" stroke-linejoin="miter" fill-opacity="0" stroke-miterlimit="10" stroke="rgb(37,58,171)" stroke-opacity="1" stroke-width="2" d=" M-218.0800018310547,218.0800018310547 C30.06800079345703,-30.06800079345703 419.3630065917969,-419.3630065917969 419.3630065917969,-419.3630065917969"></path></g><g opacity="1" transform="matrix(1,0,0,1,-420,-840)"><path stroke-linecap="butt" stroke-linejoin="miter" fill-opacity="0" stroke-miterlimit="10" stroke="rgb(37,58,171)" stroke-opacity="1" stroke-width="2" d=" M-218.0800018310547,218.0800018310547 C30.06800079345703,-30.06800079345703 419.3630065917969,-419.3630065917969 419.3630065917969,-419.3630065917969"></path></g><g opacity="1" transform="matrix(1,0,0,1,-414,-828)"><path stroke-linecap="butt" stroke-linejoin="miter" fill-opacity="0" stroke-miterlimit="10" stroke="rgb(37,58,171)" stroke-opacity="1" stroke-width="2" d=" M-218.0800018310547,218.0800018310547 C30.06800079345703,-30.06800079345703 419.3630065917969,-419.3630065917969 419.3630065917969,-419.3630065917969"></path></g><g opacity="1" transform="matrix(1,0,0,1,-408,-816)"><path stroke-linecap="butt" stroke-linejoin="miter" fill-opacity="0" stroke-miterlimit="10" stroke="rgb(37,58,171)" stroke-opacity="1" stroke-width="2" d=" M-218.0800018310547,218.0800018310547 C30.06800079345703,-30.06800079345703 419.3630065917969,-419.3630065917969 419.3630065917969,-419.3630065917969"></path></g><g opacity="1" transform="matrix(1,0,0,1,-402,-804)"><path stroke-linecap="butt" stroke-linejoin="miter" fill-opacity="0" stroke-miterlimit="10" stroke="rgb(37,58,171)" stroke-opacity="1" stroke-width="2" d=" M-218.0800018310547,218.0800018310547 C30.06800079345703,-30.06800079345703 419.3630065917969,-419.3630065917969 419.3630065917969,-419.3630065917969"></path></g><g opacity="1" transform="matrix(1,0,0,1,-396,-792)"><path stroke-linecap="butt" stroke-linejoin="miter" fill-opacity="0" stroke-miterlimit="10" stroke="rgb(37,58,171)" stroke-opacity="1" stroke-width="2" d=" M-218.0800018310547,218.0800018310547 C30.06800079345703,-30.06800079345703 419.3630065917969,-419.3630065917969 419.3630065917969,-419.3630065917969"></path></g><g opacity="1" transform="matrix(1,0,0,1,-390,-780)"><path stroke-linecap="butt" stroke-linejoin="miter" fill-opacity="0" stroke-miterlimit="10" stroke="rgb(37,58,171)" stroke-opacity="1" stroke-width="2" d=" M-218.0800018310547,218.0800018310547 C30.06800079345703,-30.06800079345703 419.3630065917969,-419.3630065917969 419.3630065917969,-419.3630065917969"></path></g><g opacity="1" transform="matrix(1,0,0,1,-384,-768)"><path stroke-linecap="butt" stroke-linejoin="miter" fill-opacity="0" stroke-miterlimit="10" stroke="rgb(37,58,171)" stroke-opacity="1" stroke-width="2" d=" M-218.0800018310547,218.0800018310547 C30.06800079345703,-30.06800079345703 419.3630065917969,-419.3630065917969 419.3630065917969,-419.3630065917969"></path></g><g opacity="1" transform="matrix(1,0,0,1,-378,-756)"><path stroke-linecap="butt" stroke-linejoin="miter" fill-opacity="0" stroke-miterlimit="10" stroke="rgb(37,58,171)" stroke-opacity="1" stroke-width="2" d=" M-218.0800018310547,218.0800018310547 C30.06800079345703,-30.06800079345703 419.3630065917969,-419.3630065917969 419.3630065917969,-419.3630065917969"></path></g><g opacity="1" transform="matrix(1,0,0,1,-372,-744)"><path stroke-linecap="butt" stroke-linejoin="miter" fill-opacity="0" stroke-miterlimit="10" stroke="rgb(37,58,171)" stroke-opacity="1" stroke-width="2" d=" M-218.0800018310547,218.0800018310547 C30.06800079345703,-30.06800079345703 419.3630065917969,-419.3630065917969 419.3630065917969,-419.3630065917969"></path></g><g opacity="1" transform="matrix(1,0,0,1,-366,-732)"><path stroke-linecap="butt" stroke-linejoin="miter" fill-opacity="0" stroke-miterlimit="10" stroke="rgb(37,58,171)" stroke-opacity="1" stroke-width="2" d=" M-218.0800018310547,218.0800018310547 C30.06800079345703,-30.06800079345703 419.3630065917969,-419.3630065917969 419.3630065917969,-419.3630065917969"></path></g><g opacity="1" transform="matrix(1,0,0,1,-360,-720)"><path stroke-linecap="butt" stroke-linejoin="miter" fill-opacity="0" stroke-miterlimit="10" stroke="rgb(37,58,171)" stroke-opacity="1" stroke-width="2" d=" M-218.0800018310547,218.0800018310547 C30.06800079345703,-30.06800079345703 419.3630065917969,-419.3630065917969 419.3630065917969,-419.3630065917969"></path></g><g opacity="1" transform="matrix(1,0,0,1,-354,-708)"><path stroke-linecap="butt" stroke-linejoin="miter" fill-opacity="0" stroke-miterlimit="10" stroke="rgb(37,58,171)" stroke-opacity="1" stroke-width="2" d=" M-218.0800018310547,218.0800018310547 C30.06800079345703,-30.06800079345703 419.3630065917969,-419.3630065917969 419.3630065917969,-419.3630065917969"></path></g><g opacity="1" transform="matrix(1,0,0,1,-348,-696)"><path stroke-linecap="butt" stroke-linejoin="miter" fill-opacity="0" stroke-miterlimit="10" stroke="rgb(37,58,171)" stroke-opacity="1" stroke-width="2" d=" M-218.0800018310547,218.0800018310547 C30.06800079345703,-30.06800079345703 419.3630065917969,-419.3630065917969 419.3630065917969,-419.3630065917969"></path></g><g opacity="1" transform="matrix(1,0,0,1,-342,-684)"><path stroke-linecap="butt" stroke-linejoin="miter" fill-opacity="0" stroke-miterlimit="10" stroke="rgb(37,58,171)" stroke-opacity="1" stroke-width="2" d=" M-218.0800018310547,218.0800018310547 C30.06800079345703,-30.06800079345703 419.3630065917969,-419.3630065917969 419.3630065917969,-419.3630065917969"></path></g><g opacity="1" transform="matrix(1,0,0,1,-336,-672)"><path stroke-linecap="butt" stroke-linejoin="miter" fill-opacity="0" stroke-miterlimit="10" stroke="rgb(37,58,171)" stroke-opacity="1" stroke-width="2" d=" M-218.0800018310547,218.0800018310547 C30.06800079345703,-30.06800079345703 419.3630065917969,-419.3630065917969 419.3630065917969,-419.3630065917969"></path></g><g opacity="1" transform="matrix(1,0,0,1,-330,-660)"><path stroke-linecap="butt" stroke-linejoin="miter" fill-opacity="0" stroke-miterlimit="10" stroke="rgb(37,58,171)" stroke-opacity="1" stroke-width="2" d=" M-218.0800018310547,218.0800018310547 C30.06800079345703,-30.06800079345703 419.3630065917969,-419.3630065917969 419.3630065917969,-419.3630065917969"></path></g><g opacity="1" transform="matrix(1,0,0,1,-324,-648)"><path stroke-linecap="butt" stroke-linejoin="miter" fill-opacity="0" stroke-miterlimit="10" stroke="rgb(37,58,171)" stroke-opacity="1" stroke-width="2" d=" M-218.0800018310547,218.0800018310547 C30.06800079345703,-30.06800079345703 419.3630065917969,-419.3630065917969 419.3630065917969,-419.3630065917969"></path></g><g opacity="1" transform="matrix(1,0,0,1,-318,-636)"><path stroke-linecap="butt" stroke-linejoin="miter" fill-opacity="0" stroke-miterlimit="10" stroke="rgb(37,58,171)" stroke-opacity="1" stroke-width="2" d=" M-218.0800018310547,218.0800018310547 C30.06800079345703,-30.06800079345703 419.3630065917969,-419.3630065917969 419.3630065917969,-419.3630065917969"></path></g><g opacity="1" transform="matrix(1,0,0,1,-312,-624)"><path stroke-linecap="butt" stroke-linejoin="miter" fill-opacity="0" stroke-miterlimit="10" stroke="rgb(37,58,171)" stroke-opacity="1" stroke-width="2" d=" M-218.0800018310547,218.0800018310547 C30.06800079345703,-30.06800079345703 419.3630065917969,-419.3630065917969 419.3630065917969,-419.3630065917969"></path></g><g opacity="1" transform="matrix(1,0,0,1,-306,-612)"><path stroke-linecap="butt" stroke-linejoin="miter" fill-opacity="0" stroke-miterlimit="10" stroke="rgb(37,58,171)" stroke-opacity="1" stroke-width="2" d=" M-218.0800018310547,218.0800018310547 C30.06800079345703,-30.06800079345703 419.3630065917969,-419.3630065917969 419.3630065917969,-419.3630065917969"></path></g><g opacity="1" transform="matrix(1,0,0,1,-300,-600)"><path stroke-linecap="butt" stroke-linejoin="miter" fill-opacity="0" stroke-miterlimit="10" stroke="rgb(37,58,171)" stroke-opacity="1" stroke-width="2" d=" M-218.0800018310547,218.0800018310547 C30.06800079345703,-30.06800079345703 419.3630065917969,-419.3630065917969 419.3630065917969,-419.3630065917969"></path></g><g opacity="1" transform="matrix(1,0,0,1,-294,-588)"><path stroke-linecap="butt" stroke-linejoin="miter" fill-opacity="0" stroke-miterlimit="10" stroke="rgb(37,58,171)" stroke-opacity="1" stroke-width="2" d=" M-218.0800018310547,218.0800018310547 C30.06800079345703,-30.06800079345703 419.3630065917969,-419.3630065917969 419.3630065917969,-419.3630065917969"></path></g><g opacity="1" transform="matrix(1,0,0,1,-288,-576)"><path stroke-linecap="butt" stroke-linejoin="miter" fill-opacity="0" stroke-miterlimit="10" stroke="rgb(37,58,171)" stroke-opacity="1" stroke-width="2" d=" M-218.0800018310547,218.0800018310547 C30.06800079345703,-30.06800079345703 419.3630065917969,-419.3630065917969 419.3630065917969,-419.3630065917969"></path></g><g opacity="1" transform="matrix(1,0,0,1,-282,-564)"><path stroke-linecap="butt" stroke-linejoin="miter" fill-opacity="0" stroke-miterlimit="10" stroke="rgb(37,58,171)" stroke-opacity="1" stroke-width="2" d=" M-218.0800018310547,218.0800018310547 C30.06800079345703,-30.06800079345703 419.3630065917969,-419.3630065917969 419.3630065917969,-419.3630065917969"></path></g><g opacity="1" transform="matrix(1,0,0,1,-276,-552)"><path stroke-linecap="butt" stroke-linejoin="miter" fill-opacity="0" stroke-miterlimit="10" stroke="rgb(37,58,171)" stroke-opacity="1" stroke-width="2" d=" M-218.0800018310547,218.0800018310547 C30.06800079345703,-30.06800079345703 419.3630065917969,-419.3630065917969 419.3630065917969,-419.3630065917969"></path></g><g opacity="1" transform="matrix(1,0,0,1,-270,-540)"><path stroke-linecap="butt" stroke-linejoin="miter" fill-opacity="0" stroke-miterlimit="10" stroke="rgb(37,58,171)" stroke-opacity="1" stroke-width="2" d=" M-218.0800018310547,218.0800018310547 C30.06800079345703,-30.06800079345703 419.3630065917969,-419.3630065917969 419.3630065917969,-419.3630065917969"></path></g><g opacity="1" transform="matrix(1,0,0,1,-264,-528)"><path stroke-linecap="butt" stroke-linejoin="miter" fill-opacity="0" stroke-miterlimit="10" stroke="rgb(37,58,171)" stroke-opacity="1" stroke-width="2" d=" M-218.0800018310547,218.0800018310547 C30.06800079345703,-30.06800079345703 419.3630065917969,-419.3630065917969 419.3630065917969,-419.3630065917969"></path></g><g opacity="1" transform="matrix(1,0,0,1,-258,-516)"><path stroke-linecap="butt" stroke-linejoin="miter" fill-opacity="0" stroke-miterlimit="10" stroke="rgb(37,58,171)" stroke-opacity="1" stroke-width="2" d=" M-218.0800018310547,218.0800018310547 C30.06800079345703,-30.06800079345703 419.3630065917969,-419.3630065917969 419.3630065917969,-419.3630065917969"></path></g><g opacity="1" transform="matrix(1,0,0,1,-252,-504)"><path stroke-linecap="butt" stroke-linejoin="miter" fill-opacity="0" stroke-miterlimit="10" stroke="rgb(37,58,171)" stroke-opacity="1" stroke-width="2" d=" M-218.0800018310547,218.0800018310547 C30.06800079345703,-30.06800079345703 419.3630065917969,-419.3630065917969 419.3630065917969,-419.3630065917969"></path></g><g opacity="1" transform="matrix(1,0,0,1,-246,-492)"><path stroke-linecap="butt" stroke-linejoin="miter" fill-opacity="0" stroke-miterlimit="10" stroke="rgb(37,58,171)" stroke-opacity="1" stroke-width="2" d=" M-218.0800018310547,218.0800018310547 C30.06800079345703,-30.06800079345703 419.3630065917969,-419.3630065917969 419.3630065917969,-419.3630065917969"></path></g><g opacity="1" transform="matrix(1,0,0,1,-240,-480)"><path stroke-linecap="butt" stroke-linejoin="miter" fill-opacity="0" stroke-miterlimit="10" stroke="rgb(37,58,171)" stroke-opacity="1" stroke-width="2" d=" M-218.0800018310547,218.0800018310547 C30.06800079345703,-30.06800079345703 419.3630065917969,-419.3630065917969 419.3630065917969,-419.3630065917969"></path></g><g opacity="1" transform="matrix(1,0,0,1,-234,-468)"><path stroke-linecap="butt" stroke-linejoin="miter" fill-opacity="0" stroke-miterlimit="10" stroke="rgb(37,58,171)" stroke-opacity="1" stroke-width="2" d=" M-218.0800018310547,218.0800018310547 C30.06800079345703,-30.06800079345703 419.3630065917969,-419.3630065917969 419.3630065917969,-419.3630065917969"></path></g><g opacity="1" transform="matrix(1,0,0,1,-228,-456)"><path stroke-linecap="butt" stroke-linejoin="miter" fill-opacity="0" stroke-miterlimit="10" stroke="rgb(37,58,171)" stroke-opacity="1" stroke-width="2" d=" M-218.0800018310547,218.0800018310547 C30.06800079345703,-30.06800079345703 419.3630065917969,-419.3630065917969 419.3630065917969,-419.3630065917969"></path></g><g opacity="1" transform="matrix(1,0,0,1,-222,-444)"><path stroke-linecap="butt" stroke-linejoin="miter" fill-opacity="0" stroke-miterlimit="10" stroke="rgb(37,58,171)" stroke-opacity="1" stroke-width="2" d=" M-218.0800018310547,218.0800018310547 C30.06800079345703,-30.06800079345703 419.3630065917969,-419.3630065917969 419.3630065917969,-419.3630065917969"></path></g><g opacity="1" transform="matrix(1,0,0,1,-216,-432)"><path stroke-linecap="butt" stroke-linejoin="miter" fill-opacity="0" stroke-miterlimit="10" stroke="rgb(37,58,171)" stroke-opacity="1" stroke-width="2" d=" M-218.0800018310547,218.0800018310547 C30.06800079345703,-30.06800079345703 419.3630065917969,-419.3630065917969 419.3630065917969,-419.3630065917969"></path></g><g opacity="1" transform="matrix(1,0,0,1,-210,-420)"><path stroke-linecap="butt" stroke-linejoin="miter" fill-opacity="0" stroke-miterlimit="10" stroke="rgb(37,58,171)" stroke-opacity="1" stroke-width="2" d=" M-218.0800018310547,218.0800018310547 C30.06800079345703,-30.06800079345703 419.3630065917969,-419.3630065917969 419.3630065917969,-419.3630065917969"></path></g><g opacity="1" transform="matrix(1,0,0,1,-204,-408)"><path stroke-linecap="butt" stroke-linejoin="miter" fill-opacity="0" stroke-miterlimit="10" stroke="rgb(37,58,171)" stroke-opacity="1" stroke-width="2" d=" M-218.0800018310547,218.0800018310547 C30.06800079345703,-30.06800079345703 419.3630065917969,-419.3630065917969 419.3630065917969,-419.3630065917969"></path></g><g opacity="1" transform="matrix(1,0,0,1,-198,-396)"><path stroke-linecap="butt" stroke-linejoin="miter" fill-opacity="0" stroke-miterlimit="10" stroke="rgb(37,58,171)" stroke-opacity="1" stroke-width="2" d=" M-218.0800018310547,218.0800018310547 C30.06800079345703,-30.06800079345703 419.3630065917969,-419.3630065917969 419.3630065917969,-419.3630065917969"></path></g><g opacity="1" transform="matrix(1,0,0,1,-192,-384)"><path stroke-linecap="butt" stroke-linejoin="miter" fill-opacity="0" stroke-miterlimit="10" stroke="rgb(37,58,171)" stroke-opacity="1" stroke-width="2" d=" M-218.0800018310547,218.0800018310547 C30.06800079345703,-30.06800079345703 419.3630065917969,-419.3630065917969 419.3630065917969,-419.3630065917969"></path></g><g opacity="1" transform="matrix(1,0,0,1,-186,-372)"><path stroke-linecap="butt" stroke-linejoin="miter" fill-opacity="0" stroke-miterlimit="10" stroke="rgb(37,58,171)" stroke-opacity="1" stroke-width="2" d=" M-218.0800018310547,218.0800018310547 C30.06800079345703,-30.06800079345703 419.3630065917969,-419.3630065917969 419.3630065917969,-419.3630065917969"></path></g><g opacity="1" transform="matrix(1,0,0,1,-180,-360)"><path stroke-linecap="butt" stroke-linejoin="miter" fill-opacity="0" stroke-miterlimit="10" stroke="rgb(37,58,171)" stroke-opacity="1" stroke-width="2" d=" M-218.0800018310547,218.0800018310547 C30.06800079345703,-30.06800079345703 419.3630065917969,-419.3630065917969 419.3630065917969,-419.3630065917969"></path></g><g opacity="1" transform="matrix(1,0,0,1,-174,-348)"><path stroke-linecap="butt" stroke-linejoin="miter" fill-opacity="0" stroke-miterlimit="10" stroke="rgb(37,58,171)" stroke-opacity="1" stroke-width="2" d=" M-218.0800018310547,218.0800018310547 C30.06800079345703,-30.06800079345703 419.3630065917969,-419.3630065917969 419.3630065917969,-419.3630065917969"></path></g><g opacity="1" transform="matrix(1,0,0,1,-168,-336)"><path stroke-linecap="butt" stroke-linejoin="miter" fill-opacity="0" stroke-miterlimit="10" stroke="rgb(37,58,171)" stroke-opacity="1" stroke-width="2" d=" M-218.0800018310547,218.0800018310547 C30.06800079345703,-30.06800079345703 419.3630065917969,-419.3630065917969 419.3630065917969,-419.3630065917969"></path></g><g opacity="1" transform="matrix(1,0,0,1,-162,-324)"><path stroke-linecap="butt" stroke-linejoin="miter" fill-opacity="0" stroke-miterlimit="10" stroke="rgb(37,58,171)" stroke-opacity="1" stroke-width="2" d=" M-218.0800018310547,218.0800018310547 C30.06800079345703,-30.06800079345703 419.3630065917969,-419.3630065917969 419.3630065917969,-419.3630065917969"></path></g><g opacity="1" transform="matrix(1,0,0,1,-156,-312)"><path stroke-linecap="butt" stroke-linejoin="miter" fill-opacity="0" stroke-miterlimit="10" stroke="rgb(37,58,171)" stroke-opacity="1" stroke-width="2" d=" M-218.0800018310547,218.0800018310547 C30.06800079345703,-30.06800079345703 419.3630065917969,-419.3630065917969 419.3630065917969,-419.3630065917969"></path></g><g opacity="1" transform="matrix(1,0,0,1,-150,-300)"><path stroke-linecap="butt" stroke-linejoin="miter" fill-opacity="0" stroke-miterlimit="10" stroke="rgb(37,58,171)" stroke-opacity="1" stroke-width="2" d=" M-218.0800018310547,218.0800018310547 C30.06800079345703,-30.06800079345703 419.3630065917969,-419.3630065917969 419.3630065917969,-419.3630065917969"></path></g><g opacity="1" transform="matrix(1,0,0,1,-144,-288)"><path stroke-linecap="butt" stroke-linejoin="miter" fill-opacity="0" stroke-miterlimit="10" stroke="rgb(37,58,171)" stroke-opacity="1" stroke-width="2" d=" M-218.0800018310547,218.0800018310547 C30.06800079345703,-30.06800079345703 419.3630065917969,-419.3630065917969 419.3630065917969,-419.3630065917969"></path></g><g opacity="1" transform="matrix(1,0,0,1,-138,-276)"><path stroke-linecap="butt" stroke-linejoin="miter" fill-opacity="0" stroke-miterlimit="10" stroke="rgb(37,58,171)" stroke-opacity="1" stroke-width="2" d=" M-218.0800018310547,218.0800018310547 C30.06800079345703,-30.06800079345703 419.3630065917969,-419.3630065917969 419.3630065917969,-419.3630065917969"></path></g><g opacity="1" transform="matrix(1,0,0,1,-132,-264)"><path stroke-linecap="butt" stroke-linejoin="miter" fill-opacity="0" stroke-miterlimit="10" stroke="rgb(37,58,171)" stroke-opacity="1" stroke-width="2" d=" M-218.0800018310547,218.0800018310547 C30.06800079345703,-30.06800079345703 419.3630065917969,-419.3630065917969 419.3630065917969,-419.3630065917969"></path></g><g opacity="1" transform="matrix(1,0,0,1,-126,-252)"><path stroke-linecap="butt" stroke-linejoin="miter" fill-opacity="0" stroke-miterlimit="10" stroke="rgb(37,58,171)" stroke-opacity="1" stroke-width="2" d=" M-218.0800018310547,218.0800018310547 C30.06800079345703,-30.06800079345703 419.3630065917969,-419.3630065917969 419.3630065917969,-419.3630065917969"></path></g><g opacity="1" transform="matrix(1,0,0,1,-120,-240)"><path stroke-linecap="butt" stroke-linejoin="miter" fill-opacity="0" stroke-miterlimit="10" stroke="rgb(37,58,171)" stroke-opacity="1" stroke-width="2" d=" M-218.0800018310547,218.0800018310547 C30.06800079345703,-30.06800079345703 419.3630065917969,-419.3630065917969 419.3630065917969,-419.3630065917969"></path></g><g opacity="1" transform="matrix(1,0,0,1,-114,-228)"><path stroke-linecap="butt" stroke-linejoin="miter" fill-opacity="0" stroke-miterlimit="10" stroke="rgb(37,58,171)" stroke-opacity="1" stroke-width="2" d=" M-218.0800018310547,218.0800018310547 C30.06800079345703,-30.06800079345703 419.3630065917969,-419.3630065917969 419.3630065917969,-419.3630065917969"></path></g><g opacity="1" transform="matrix(1,0,0,1,-108,-216)"><path stroke-linecap="butt" stroke-linejoin="miter" fill-opacity="0" stroke-miterlimit="10" stroke="rgb(37,58,171)" stroke-opacity="1" stroke-width="2" d=" M-218.0800018310547,218.0800018310547 C30.06800079345703,-30.06800079345703 419.3630065917969,-419.3630065917969 419.3630065917969,-419.3630065917969"></path></g><g opacity="1" transform="matrix(1,0,0,1,-102,-204)"><path stroke-linecap="butt" stroke-linejoin="miter" fill-opacity="0" stroke-miterlimit="10" stroke="rgb(37,58,171)" stroke-opacity="1" stroke-width="2" d=" M-218.0800018310547,218.0800018310547 C30.06800079345703,-30.06800079345703 419.3630065917969,-419.3630065917969 419.3630065917969,-419.3630065917969"></path></g><g opacity="1" transform="matrix(1,0,0,1,-96,-192)"><path stroke-linecap="butt" stroke-linejoin="miter" fill-opacity="0" stroke-miterlimit="10" stroke="rgb(37,58,171)" stroke-opacity="1" stroke-width="2" d=" M-218.0800018310547,218.0800018310547 C30.06800079345703,-30.06800079345703 419.3630065917969,-419.3630065917969 419.3630065917969,-419.3630065917969"></path></g><g opacity="1" transform="matrix(1,0,0,1,-90,-180)"><path stroke-linecap="butt" stroke-linejoin="miter" fill-opacity="0" stroke-miterlimit="10" stroke="rgb(37,58,171)" stroke-opacity="1" stroke-width="2" d=" M-218.0800018310547,218.0800018310547 C30.06800079345703,-30.06800079345703 419.3630065917969,-419.3630065917969 419.3630065917969,-419.3630065917969"></path></g><g opacity="1" transform="matrix(1,0,0,1,-84,-168)"><path stroke-linecap="butt" stroke-linejoin="miter" fill-opacity="0" stroke-miterlimit="10" stroke="rgb(37,58,171)" stroke-opacity="1" stroke-width="2" d=" M-218.0800018310547,218.0800018310547 C30.06800079345703,-30.06800079345703 419.3630065917969,-419.3630065917969 419.3630065917969,-419.3630065917969"></path></g><g opacity="1" transform="matrix(1,0,0,1,-78,-156)"><path stroke-linecap="butt" stroke-linejoin="miter" fill-opacity="0" stroke-miterlimit="10" stroke="rgb(37,58,171)" stroke-opacity="1" stroke-width="2" d=" M-218.0800018310547,218.0800018310547 C30.06800079345703,-30.06800079345703 419.3630065917969,-419.3630065917969 419.3630065917969,-419.3630065917969"></path></g><g opacity="1" transform="matrix(1,0,0,1,-72,-144)"><path stroke-linecap="butt" stroke-linejoin="miter" fill-opacity="0" stroke-miterlimit="10" stroke="rgb(37,58,171)" stroke-opacity="1" stroke-width="2" d=" M-218.0800018310547,218.0800018310547 C30.06800079345703,-30.06800079345703 419.3630065917969,-419.3630065917969 419.3630065917969,-419.3630065917969"></path></g><g opacity="1" transform="matrix(1,0,0,1,-66,-132)"><path stroke-linecap="butt" stroke-linejoin="miter" fill-opacity="0" stroke-miterlimit="10" stroke="rgb(37,58,171)" stroke-opacity="1" stroke-width="2" d=" M-218.0800018310547,218.0800018310547 C30.06800079345703,-30.06800079345703 419.3630065917969,-419.3630065917969 419.3630065917969,-419.3630065917969"></path></g><g opacity="1" transform="matrix(1,0,0,1,-60,-120)"><path stroke-linecap="butt" stroke-linejoin="miter" fill-opacity="0" stroke-miterlimit="10" stroke="rgb(37,58,171)" stroke-opacity="1" stroke-width="2" d=" M-218.0800018310547,218.0800018310547 C30.06800079345703,-30.06800079345703 419.3630065917969,-419.3630065917969 419.3630065917969,-419.3630065917969"></path></g><g opacity="1" transform="matrix(1,0,0,1,-54,-108)"><path stroke-linecap="butt" stroke-linejoin="miter" fill-opacity="0" stroke-miterlimit="10" stroke="rgb(37,58,171)" stroke-opacity="1" stroke-width="2" d=" M-218.0800018310547,218.0800018310547 C30.06800079345703,-30.06800079345703 419.3630065917969,-419.3630065917969 419.3630065917969,-419.3630065917969"></path></g><g opacity="1" transform="matrix(1,0,0,1,-48,-96)"><path stroke-linecap="butt" stroke-linejoin="miter" fill-opacity="0" stroke-miterlimit="10" stroke="rgb(37,58,171)" stroke-opacity="1" stroke-width="2" d=" M-218.0800018310547,218.0800018310547 C30.06800079345703,-30.06800079345703 419.3630065917969,-419.3630065917969 419.3630065917969,-419.3630065917969"></path></g><g opacity="1" transform="matrix(1,0,0,1,-42,-84)"><path stroke-linecap="butt" stroke-linejoin="miter" fill-opacity="0" stroke-miterlimit="10" stroke="rgb(37,58,171)" stroke-opacity="1" stroke-width="2" d=" M-218.0800018310547,218.0800018310547 C30.06800079345703,-30.06800079345703 419.3630065917969,-419.3630065917969 419.3630065917969,-419.3630065917969"></path></g><g opacity="1" transform="matrix(1,0,0,1,-36,-72)"><path stroke-linecap="butt" stroke-linejoin="miter" fill-opacity="0" stroke-miterlimit="10" stroke="rgb(37,58,171)" stroke-opacity="1" stroke-width="2" d=" M-218.0800018310547,218.0800018310547 C30.06800079345703,-30.06800079345703 419.3630065917969,-419.3630065917969 419.3630065917969,-419.3630065917969"></path></g><g opacity="1" transform="matrix(1,0,0,1,-30,-60)"><path stroke-linecap="butt" stroke-linejoin="miter" fill-opacity="0" stroke-miterlimit="10" stroke="rgb(37,58,171)" stroke-opacity="1" stroke-width="2" d=" M-218.0800018310547,218.0800018310547 C30.06800079345703,-30.06800079345703 419.3630065917969,-419.3630065917969 419.3630065917969,-419.3630065917969"></path></g><g opacity="1" transform="matrix(1,0,0,1,-24,-48)"><path stroke-linecap="butt" stroke-linejoin="miter" fill-opacity="0" stroke-miterlimit="10" stroke="rgb(37,58,171)" stroke-opacity="1" stroke-width="2" d=" M-218.0800018310547,218.0800018310547 C30.06800079345703,-30.06800079345703 419.3630065917969,-419.3630065917969 419.3630065917969,-419.3630065917969"></path></g><g opacity="1" transform="matrix(1,0,0,1,-18,-36)"><path stroke-linecap="butt" stroke-linejoin="miter" fill-opacity="0" stroke-miterlimit="10" stroke="rgb(37,58,171)" stroke-opacity="1" stroke-width="2" d=" M-218.0800018310547,218.0800018310547 C30.06800079345703,-30.06800079345703 419.3630065917969,-419.3630065917969 419.3630065917969,-419.3630065917969"></path></g><g opacity="1" transform="matrix(1,0,0,1,-12,-24)"><path stroke-linecap="butt" stroke-linejoin="miter" fill-opacity="0" stroke-miterlimit="10" stroke="rgb(37,58,171)" stroke-opacity="1" stroke-width="2" d=" M-218.0800018310547,218.0800018310547 C30.06800079345703,-30.06800079345703 419.3630065917969,-419.3630065917969 419.3630065917969,-419.3630065917969"></path></g><g opacity="1" transform="matrix(1,0,0,1,-6,-12)"><path stroke-linecap="butt" stroke-linejoin="miter" fill-opacity="0" stroke-miterlimit="10" stroke="rgb(37,58,171)" stroke-opacity="1" stroke-width="2" d=" M-218.0800018310547,218.0800018310547 C30.06800079345703,-30.06800079345703 419.3630065917969,-419.3630065917969 419.3630065917969,-419.3630065917969"></path></g><g opacity="1" transform="matrix(1,0,0,1,0,0)"><path stroke-linecap="butt" stroke-linejoin="miter" fill-opacity="0" stroke-miterlimit="10" stroke="rgb(37,58,171)" stroke-opacity="1" stroke-width="2" d=" M-218.0800018310547,218.0800018310547 C30.06800079345703,-30.06800079345703 419.3630065917969,-419.3630065917969 419.3630065917969,-419.3630065917969"></path></g></g></g></g></mask></defs><g clip-path="url(#__lottie_element_135)"><g transform="matrix(1,0,0,1,-0.25,-0.25)" opacity="1" style="display: block;"><g opacity="1" transform="matrix(1,0,0,1,960.25,540.25)"><path fill="rgb(5,19,56)" fill-opacity="1" d=" M-960,540 C-960,540 960,540 960,540 C960,540 960,-540 960,-540 C960,-540 -960,-540 -960,-540 C-960,-540 -960,540 -960,540z"></path></g></g><g clip-path="url(#__lottie_element_143)" transform="matrix(1.727437138557434,-0.20871205627918243,0.20871205627918243,1.727437138557434,961.9637451171875,610.7754516601562)" opacity="1" style="display: block;"><g transform="matrix(1,0,0,1,0,0)" opacity="1" style="display: block;"><g opacity="1" transform="matrix(1,0,0,1,420.093994140625,423.7829895019531)"><path fill="rgb(152,201,61)" fill-opacity="1" d=" M244.18499755859375,-231.22900390625 C244.18499755859375,-231.22900390625 244.01199340820312,-231.2050018310547 244.01199340820312,-231.2050018310547 C244.01199340820312,-231.2050018310547 169.0290069580078,-271.9939880371094 169.0290069580078,-271.9939880371094 C169.0290069580078,-271.9939880371094 169.0290069580078,-272.1650085449219 169.0290069580078,-272.1650085449219 C169.0290069580078,-272.1650085449219 90.28900146484375,-315 90.28900146484375,-315 C90.28900146484375,-315 -47.262001037597656,-295.6669921875 -47.262001037597656,-295.6669921875 C-47.262001037597656,-295.6669921875 -184.82400512695312,-276.3349914550781 -184.82400512695312,-276.3349914550781 C-184.82400512695312,-276.3349914550781 -322.375,-257.00299072265625 -322.375,-257.00299072265625 C-322.375,-257.00299072265625 -322.0989990234375,-256.85400390625 -322.0989990234375,-256.85400390625 C-322.0989990234375,-256.85400390625 -322.375,-108.56800079345703 -322.375,-108.56800079345703 C-322.375,-108.56800079345703 -322.6499938964844,-108.52899932861328 -322.6499938964844,-108.52899932861328 C-322.6499938964844,-108.52899932861328 -322.375,-108.37899780273438 -322.375,-108.37899780273438 C-322.375,-108.37899780273438 -322.64898681640625,39.89500045776367 -322.64898681640625,39.89500045776367 C-322.64898681640625,39.89500045776367 -322.9259948730469,39.933998107910156 -322.9259948730469,39.933998107910156 C-322.9259948730469,39.933998107910156 -322.6499938964844,40.08300018310547 -322.6499938964844,40.08300018310547 C-322.6499938964844,40.08300018310547 -322.9259948730469,188.39599609375 -322.9259948730469,188.39599609375 C-322.9259948730469,188.39599609375 -245.92799377441406,230.2830047607422 -245.92799377441406,230.2830047607422 C-245.92799377441406,230.2830047607422 -245.92799377441406,230.60299682617188 -245.92799377441406,230.60299682617188 C-245.92799377441406,230.60299682617188 -167.18800354003906,273.43701171875 -167.18800354003906,273.43701171875 C-167.18800354003906,273.43701171875 -167.01400756835938,273.4129943847656 -167.01400756835938,273.4129943847656 C-167.01400756835938,273.4129943847656 -90.56400299072266,315 -90.56400299072266,315 C-90.56400299072266,315 46.986000061035156,295.66900634765625 46.986000061035156,295.66900634765625 C46.986000061035156,295.66900634765625 184.5469970703125,276.33599853515625 184.5469970703125,276.33599853515625 C184.5469970703125,276.33599853515625 322.0989990234375,257.0039978027344 322.0989990234375,257.0039978027344 C322.0989990234375,257.0039978027344 322.3739929199219,108.52999877929688 322.3739929199219,108.52999877929688 C322.3739929199219,108.52999877929688 322.6499938964844,-39.93199920654297 322.6499938964844,-39.93199920654297 C322.6499938964844,-39.93199920654297 322.9259948730469,-188.39500427246094 322.9259948730469,-188.39500427246094 C322.9259948730469,-188.39500427246094 244.18499755859375,-231.22900390625 244.18499755859375,-231.22900390625z"></path></g></g></g><g clip-path="url(#__lottie_element_147)" transform="matrix(1,0,0,1,-656.5,411.8763427734375)" opacity="1" style="display: block;"><g clip-path="url(#__lottie_element_158)" transform="matrix(1,0,0,1,0,0)" opacity="1" style="display: block;"><g mask="url(#__lottie_element_164)" style="display: block;"><g transform="matrix(1,0,0,1,-311.208984375,-327.33099365234375)" opacity="1"><g opacity="1" transform="matrix(1,0,0,1,760.7100219726562,776.8309936523438)"><path fill="rgb(40,63,165)" fill-opacity="1" d=" M277.2250061035156,-337.5 C277.2250061035156,-337.5 276.6669921875,-38.9010009765625 276.6669921875,-38.9010009765625 C276.6669921875,-38.9010009765625 276.1099853515625,259.7439880371094 276.1099853515625,259.7439880371094 C276.1099853515625,259.7439880371094 -0.5569999814033508,298.5989990234375 -0.5569999814033508,298.5989990234375 C-0.5569999814033508,298.5989990234375 -277.2239990234375,337.5 -277.2239990234375,337.5 C-277.2239990234375,337.5 -276.6679992675781,38.900001525878906 -276.6679992675781,38.900001525878906 C-276.6679992675781,38.900001525878906 -276.1090087890625,-259.7449951171875 -276.1090087890625,-259.7449951171875 C-276.1090087890625,-259.7449951171875 0.5569999814033508,-298.5989990234375 0.5569999814033508,-298.5989990234375 C0.5569999814033508,-298.5989990234375 277.2250061035156,-337.5 277.2250061035156,-337.5z"></path></g></g></g></g></g><g clip-path="url(#__lottie_element_151)" transform="matrix(2.035198926925659,-0.2458963841199875,0.2458963841199875,2.035198926925659,-423.3846130371094,-782.613037109375)" opacity="1" style="display: block;"><g transform="matrix(1,0,0,1,0,0)" opacity="1" style="display: block;"><g opacity="1" transform="matrix(1,0,0,1,334.59698486328125,339.59698486328125)"><path fill="rgb(85,173,218)" fill-opacity="1" d=" M-215.302001953125,96.81199645996094 C-215.302001953125,96.81199645996094 -215.2270050048828,55.236000061035156 -215.2270050048828,55.236000061035156 C-215.2270050048828,55.236000061035156 -215.01100158691406,-57.847999572753906 -215.01100158691406,-57.847999572753906 C-215.01100158691406,-57.847999572753906 -30.85700035095215,-83.96900177001953 -30.85700035095215,-83.96900177001953 C-30.85700035095215,-83.96900177001953 -30.892000198364258,-97.43000030517578 -30.892000198364258,-97.43000030517578 C-30.892000198364258,-97.43000030517578 -30.60099983215332,-252.66799926757812 -30.60099983215332,-252.66799926757812 C-30.60099983215332,-252.66799926757812 215.30299377441406,-118.90599822998047 215.30299377441406,-118.90599822998047 C215.30299377441406,-118.90599822998047 215.01199340820312,36.334999084472656 215.01199340820312,36.334999084472656 C215.01199340820312,36.334999084472656 215.59300231933594,191.10299682617188 215.59300231933594,191.10299682617188 C215.59300231933594,191.10299682617188 214.7209930419922,190.6320037841797 214.7209930419922,190.6320037841797 C214.7209930419922,190.6320037841797 214.7209930419922,191.21200561523438 214.7209930419922,191.21200561523438 C214.7209930419922,191.21200561523438 -215.59300231933594,252.66799926757812 -215.59300231933594,252.66799926757812 C-215.59300231933594,252.66799926757812 -215.3730010986328,130.22500610351562 -215.3730010986328,130.22500610351562 C-215.3730010986328,130.22500610351562 -215.3730010986328,129.39100646972656 -215.3730010986328,129.39100646972656"></path></g></g></g><g transform="matrix(0.11994946002960205,0.9927799701690674,-0.9927799701690674,0.11994946002960205,985.5563354492188,587.6183471679688)" opacity="1" style="display: block;"><g opacity="1" transform="matrix(1,0,0,1,-50.34000015258789,19.65999984741211)"><path fill="rgb(22,27,51)" fill-opacity="0" d=" M143.66000366210938,-143.66000366210938 C143.66000366210938,-143.66000366210938 143.66000366210938,143.66000366210938 143.66000366210938,143.66000366210938 C143.66000366210938,143.66000366210938 -143.66000366210938,143.66000366210938 -143.66000366210938,143.66000366210938 C-143.66000366210938,143.66000366210938 -143.66000366210938,-143.66000366210938 -143.66000366210938,-143.66000366210938 C-143.66000366210938,-143.66000366210938 143.66000366210938,-143.66000366210938 143.66000366210938,-143.66000366210938z"></path><path stroke-linecap="butt" stroke-linejoin="miter" fill-opacity="0" stroke-miterlimit="4" stroke="rgb(22,26,51)" stroke-opacity="0" stroke-width="4" d=" M143.66000366210938,-143.66000366210938 C143.66000366210938,-143.66000366210938 143.66000366210938,143.66000366210938 143.66000366210938,143.66000366210938 C143.66000366210938,143.66000366210938 -143.66000366210938,143.66000366210938 -143.66000366210938,143.66000366210938 C-143.66000366210938,143.66000366210938 -143.66000366210938,-143.66000366210938 -143.66000366210938,-143.66000366210938 C-143.66000366210938,-143.66000366210938 143.66000366210938,-143.66000366210938 143.66000366210938,-143.66000366210938z"></path></g></g></g></svg>