<svg width="24" height="24" viewBox="0 0 24 24" fill="none" xmlns="http://www.w3.org/2000/svg"><path d="M16.5 22.25h-9a.75.75 0 0 1-.75-.68l-1.5-16a.71.71 0 0 1 .2-.57.73.73 0 0 1 .55-.25h12a.77.77 0 0 1 .56.25.739.739 0 0 1 .19.57l-1.5 16a.75.75 0 0 1-.75.68Zm-8.32-1.5h7.64l1.36-14.5H6.82l1.36 14.5Z" fill="#fff"/><path d="M19 6.25H5a.75.75 0 0 1 0-1.5h14a.75.75 0 1 1 0 1.5Zm-4.5-3h-5a.75.75 0 0 1 0-1.5h5a.75.75 0 1 1 0 1.5Zm-4.25 14.22a.76.76 0 0 1-.75-.75v-6.44a.75.75 0 0 1 1.5 0v6.44a.76.76 0 0 1-.75.75Zm3.5 0a.76.76 0 0 1-.75-.75v-6.44a.75.75 0 1 1 1.5 0v6.44a.76.76 0 0 1-.75.75Z" fill="#fff"/></svg>